name analog
datacolumns 19
datarows 57
range 0.1775 0.20550000000000002
endheader
time	ground_force_vx	ground_force_vy	ground_force_vz	ground_force_px	ground_force_py	ground_force_pz	l_ground_force_vx	l_ground_force_vy	l_ground_force_vz	l_ground_force_px	l_ground_force_py	l_ground_force_pz	ground_torque_x	ground_torque_y	ground_torque_z	l_ground_torque_x	l_ground_torque_y	l_ground_torque_z
0.1775	-0.0	-0.0	-0.0	-3.604363203048706	73.47359466552734	-546.5345458984375	7.579776763916016	-80.28773498535156	-536.1157836914062	-0.0	-0.0	-0.0	-0.0	-0.0	-0.0	73635.0703125	-18036.181640625	-5545.67529296875
0.178	-0.0	-0.0	-0.0	-3.0272538661956787	73.835693359375	-545.498046875	7.792715072631836	-80.86711120605469	-538.7817993164062	-0.0	-0.0	-0.0	-0.0	-0.0	-0.0	73546.9296875	-17989.1875	-5590.68115234375
0.1785	-0.0	-0.0	-0.0	-3.265235662460327	73.52052307128906	-545.4506225585938	8.161392211914062	-81.30548095703125	-539.91357421875	-0.0	-0.0	-0.0	-0.0	-0.0	-0.0	73762.0625	-17907.98828125	-5577.45458984375
0.179	-0.0	-0.0	-0.0	-2.937765121459961	73.48492431640625	-545.8029174804688	8.342549324035645	-81.92022705078125	-542.5963134765625	-0.0	-0.0	-0.0	-0.0	-0.0	-0.0	73972.46875	-17553.05859375	-5668.99609375
0.1795	-0.0	-0.0	-0.0	-2.599692344665528	73.40831756591797	-544.7925415039062	8.419831275939941	-82.58078002929688	-544.8132934570312	-0.0	-0.0	-0.0	-0.0	-0.0	-0.0	74102.515625	-17636.814453125	-5500.26220703125
0.18	-0.0	-0.0	-0.0	-2.587104797363281	73.30015563964844	-546.1293334960938	8.558611869812012	-82.96837615966797	-545.1768798828125	-0.0	-0.0	-0.0	-0.0	-0.0	-0.0	74061.015625	-17363.48828125	-5635.66064453125
0.1805	-0.0	-0.0	-0.0	-2.6284337043762207	73.53257751464844	-547.3251953125	9.230025291442873	-83.5142822265625	-546.4222412109375	-0.0	-0.0	-0.0	-0.0	-0.0	-0.0	74318.5078125	-17558.736328125	-5653.560546875
0.181	-0.0	-0.0	-0.0	-2.263683319091797	73.61503601074219	-549.11083984375	9.842662811279297	-83.287353515625	-548.3342895507812	-0.0	-0.0	-0.0	-0.0	-0.0	-0.0	74414.03125	-17527.1484375	-5476.58642578125
0.1815	-0.0	-0.0	-0.0	-2.1066694259643555	73.57374572753906	-548.8416748046875	10.370433807373049	-83.58995819091797	-549.1983642578125	-0.0	-0.0	-0.0	-0.0	-0.0	-0.0	74321.0390625	-17289.935546875	-5500.244140625
0.182	-0.0	-0.0	-0.0	-1.681113600730896	73.7861099243164	-550.2268676757812	10.767129898071287	-83.42206573486328	-550.4286499023438	-0.0	-0.0	-0.0	-0.0	-0.0	-0.0	74472.3671875	-17187.751953125	-5490.30224609375
0.1825	-0.0	-0.0	-0.0	-1.1866559982299805	73.96409606933594	-552.1548461914062	11.252402305603027	-83.4639892578125	-552.35791015625	-0.0	-0.0	-0.0	-0.0	-0.0	-0.0	74690.8671875	-17472.96875	-5466.74365234375
0.183	-0.0	-0.0	-0.0	-0.9813156127929688	74.50579833984375	-553.079833984375	11.798534393310549	-82.8504867553711	-553.2401123046875	-0.0	-0.0	-0.0	-0.0	-0.0	-0.0	74626.390625	-17161.017578125	-5428.73193359375
0.1835	-0.0	-0.0	-0.0	-0.7210203409194946	74.34208679199219	-553.5491333007812	12.153377532958984	-82.66423797607422	-554.9669189453125	-0.0	-0.0	-0.0	-0.0	-0.0	-0.0	74815.46875	-16953.8203125	-5540.61474609375
0.184	-0.0	-0.0	-0.0	-1.1597366333007812	74.77294921875	-555.7138671875	12.022817611694336	-82.2741470336914	-555.3355712890625	-0.0	-0.0	-0.0	-0.0	-0.0	-0.0	75116.875	-17141.91015625	-5543.8525390625
0.1845	-0.0	-0.0	-0.0	-1.200534701347351	74.38313293457031	-556.0667724609375	12.242088317871094	-82.09757995605469	-557.4510498046875	-0.0	-0.0	-0.0	-0.0	-0.0	-0.0	75368.734375	-16776.87890625	-5618.64990234375
0.185	-0.0	-0.0	-0.0	-1.167462706565857	73.9627914428711	-557.771240234375	12.471771240234377	-81.4898681640625	-558.6011352539062	-0.0	-0.0	-0.0	-0.0	-0.0	-0.0	75475.671875	-16822.021484375	-5705.5615234375
0.1855	-0.0	-0.0	-0.0	-0.997029423713684	74.55365753173828	-560.3665771484375	12.200432777404783	-81.43797302246094	-559.832763671875	-0.0	-0.0	-0.0	-0.0	-0.0	-0.0	75601.6875	-16778.5	-5721.4326171875
0.186	-0.0	-0.0	-0.0	-1.1111390590667725	74.59416961669922	-562.1676025390625	12.111785888671877	-80.76192474365234	-560.9447021484375	-0.0	-0.0	-0.0	-0.0	-0.0	-0.0	75833.1796875	-16735.779296875	-5942.859375
0.1865	-0.0	-0.0	-0.0	-1.2246313095092771	74.43199920654297	-563.322021484375	11.538060188293455	-80.14911651611328	-561.9706420898438	-0.0	-0.0	-0.0	-0.0	-0.0	-0.0	75958.75	-16314.466796875	-6018.17431640625
0.187	-0.0	-0.0	-0.0	-1.2084733247756958	74.75564575195312	-565.9872436523438	11.130301475524902	-79.45402526855469	-562.6464233398438	-0.0	-0.0	-0.0	-0.0	-0.0	-0.0	75960.125	-16200.7373046875	-6198.1884765625
0.1875	-0.0	-0.0	-0.0	-1.2573295831680298	75.12017822265625	-566.3074340820312	10.50926685333252	-79.21276092529297	-561.668701171875	-0.0	-0.0	-0.0	-0.0	-0.0	-0.0	75902.0625	-16099.6416015625	-6481.38720703125
0.188	-0.0	-0.0	-0.0	-1.7035131454467771	74.74638366699219	-567.947021484375	9.80556869506836	-78.38248443603516	-563.1815185546875	-0.0	-0.0	-0.0	-0.0	-0.0	-0.0	76160.8203125	-15897.7998046875	-6564.64013671875
0.1885	-0.0	-0.0	-0.0	-2.4489586353302	75.37836456298828	-567.9819946289062	9.143409729003906	-77.85865783691406	-560.7619018554688	-0.0	-0.0	-0.0	-0.0	-0.0	-0.0	75967.28125	-15702.4345703125	-6711.12744140625
0.189	-0.0	-0.0	-0.0	-3.006840229034424	75.49345397949219	-568.9033813476562	8.208902359008789	-76.94075012207031	-560.3883056640625	-0.0	-0.0	-0.0	-0.0	-0.0	-0.0	75986.9296875	-15342.93359375	-6925.42578125
0.1895	-0.0	-0.0	-0.0	-3.666534662246704	74.60214233398438	-569.749755859375	7.717838287353516	-76.3099365234375	-561.784912109375	-0.0	-0.0	-0.0	-0.0	-0.0	-0.0	76068.890625	-15280.36328125	-7083.38330078125
0.19	-0.0	-0.0	-0.0	-4.527710437774658	74.51301574707031	-569.8737182617188	6.54323148727417	-75.91576385498047	-561.435791015625	-0.0	-0.0	-0.0	-0.0	-0.0	-0.0	75997.1171875	-15018.9521484375	-7266.38818359375
0.1905	-0.0	-0.0	-0.0	-4.531409740447998	74.43304443359375	-569.76513671875	5.889219284057617	-75.22258758544922	-560.5233764648438	-0.0	-0.0	-0.0	-0.0	-0.0	-0.0	75806.2109375	-14679.25390625	-7412.73583984375
0.191	-0.0	-0.0	-0.0	-4.8666276931762695	73.7906723022461	-570.628173828125	5.377269744873047	-74.5163803100586	-560.49560546875	-0.0	-0.0	-0.0	-0.0	-0.0	-0.0	76076.578125	-14573.216796875	-7593.12060546875
0.1915	-0.0	-0.0	-0.0	-5.3548359870910645	73.7811508178711	-570.7760620117188	4.660794258117676	-73.84385681152344	-558.3208618164062	-0.0	-0.0	-0.0	-0.0	-0.0	-0.0	75489.546875	-14304.3525390625	-7890.0810546875
0.192	-0.0	-0.0	-0.0	-5.679197311401367	73.42436981201172	-570.2279663085938	3.795011520385742	-73.483642578125	-558.3771362304688	-0.0	-0.0	-0.0	-0.0	-0.0	-0.0	75723.3359375	-13999.3955078125	-7947.5419921875
0.1925	-0.0	-0.0	-0.0	-5.898548126220703	73.54227447509766	-568.385498046875	3.474186420440674	-73.04924011230469	-556.4158325195312	-0.0	-0.0	-0.0	-0.0	-0.0	-0.0	75780.03125	-13690.8125	-7885.83935546875
0.193	-0.0	-0.0	-0.0	-6.9387969970703125	73.10699462890625	-570.7794189453125	2.912768840789795	-72.06318664550781	-557.217041015625	-0.0	-0.0	-0.0	-0.0	-0.0	-0.0	75553.046875	-13636.8740234375	-7998.31494140625
0.1935	-0.0	-0.0	-0.0	-7.493821144104004	72.93846893310547	-570.7781372070312	3.071732759475708	-71.23516845703125	-557.5950927734375	-0.0	-0.0	-0.0	-0.0	-0.0	-0.0	75496.5	-13327.453125	-7990.5380859375
0.194	-0.0	-0.0	-0.0	-7.791525840759277	73.29537200927734	-573.7208251953125	3.1530332565307617	-70.35958099365234	-556.76708984375	-0.0	-0.0	-0.0	-0.0	-0.0	-0.0	75554.90625	-13291.5478515625	-7992.7138671875
0.1945	-0.0	-0.0	-0.0	-7.751112461090088	72.7406005859375	-573.5238037109375	3.0566563606262207	-69.19619750976562	-556.35791015625	-0.0	-0.0	-0.0	-0.0	-0.0	-0.0	75892.1875	-13190.6923828125	-7973.12158203125
0.195	-0.0	-0.0	-0.0	-7.800745010375977	72.66195678710938	-573.8023071289062	3.37888765335083	-68.44146728515625	-556.4856567382812	-0.0	-0.0	-0.0	-0.0	-0.0	-0.0	75916.734375	-13178.775390625	-8026.90673828125
0.1955	-0.0	-0.0	-0.0	-8.267663955688477	72.64375305175781	-572.940673828125	3.71786379814148	-67.37353515625	-555.151123046875	-0.0	-0.0	-0.0	-0.0	-0.0	-0.0	76018.921875	-13260.4716796875	-7983.2705078125
0.196	-0.0	-0.0	-0.0	-8.3328275680542	72.14576721191406	-573.4505004882812	3.749909400939941	-66.6026382446289	-556.3890991210938	-0.0	-0.0	-0.0	-0.0	-0.0	-0.0	75971.234375	-12840.4443359375	-8026.25634765625
0.1965	-0.0	-0.0	-0.0	-8.292856216430664	71.72151184082031	-574.5534057617188	3.8630521297454834	-65.89620971679688	-554.261962890625	-0.0	-0.0	-0.0	-0.0	-0.0	-0.0	75804.765625	-12829.7470703125	-8028.80859375
0.197	-0.0	-0.0	-0.0	-8.592537879943848	71.63253784179688	-574.4686889648438	4.072319507598877	-64.97311401367188	-552.2919311523438	-0.0	-0.0	-0.0	-0.0	-0.0	-0.0	75788.5390625	-12897.8037109375	-8049.7607421875
0.1975	-0.0	-0.0	-0.0	-8.413919448852539	71.40442657470703	-574.18359375	4.169406890869141	-64.13848114013672	-551.46826171875	-0.0	-0.0	-0.0	-0.0	-0.0	-0.0	75669.59375	-12416.109375	-8108.7646484375
0.198	-0.0	-0.0	-0.0	-8.982320785522461	71.34333801269531	-574.4691772460938	3.668546199798584	-63.86517333984375	-549.688232421875	-0.0	-0.0	-0.0	-0.0	-0.0	-0.0	75310.328125	-12260.3037109375	-8163.6103515625
0.1985	-0.0	-0.0	-0.0	-8.909810066223145	71.02570343017578	-571.9971923828125	3.193588256835937	-63.251949310302734	-548.7435302734375	-0.0	-0.0	-0.0	-0.0	-0.0	-0.0	75163.1328125	-11958.3671875	-8238.2392578125
0.199	-0.0	-0.0	-0.0	-9.284533500671388	70.73066711425781	-571.888427734375	2.7899341583251958	-62.77898025512695	-546.579345703125	-0.0	-0.0	-0.0	-0.0	-0.0	-0.0	74953.9765625	-11611.8818359375	-8284.2705078125
0.1995	-0.0	-0.0	-0.0	-9.374245643615724	70.83133697509766	-572.504638671875	2.465858459472656	-62.34613037109375	-545.025634765625	-0.0	-0.0	-0.0	-0.0	-0.0	-0.0	74876.2734375	-11301.4853515625	-8336.3544921875
0.2	-0.0	-0.0	-0.0	-9.533894538879396	70.36264038085938	-570.18603515625	2.2483971118927	-62.14797592163086	-543.5930786132812	-0.0	-0.0	-0.0	-0.0	-0.0	-0.0	74425.0625	-11119.2724609375	-8541.068359375
0.2005	-0.0	-0.0	-0.0	-9.797993659973145	69.7621841430664	-571.1386108398438	1.7438075542449951	-61.49291229248047	-541.95654296875	-0.0	-0.0	-0.0	-0.0	-0.0	-0.0	74087.0859375	-10908.9482421875	-8527.958984375
0.201	-0.0	-0.0	-0.0	-10.300864219665527	69.62571716308594	-569.5851440429688	1.2023000717163086	-61.68801498413086	-541.259033203125	-0.0	-0.0	-0.0	-0.0	-0.0	-0.0	74111.296875	-10596.2412109375	-8647.0498046875
0.2015	-0.0	-0.0	-0.0	-10.423075675964355	69.34346008300781	-571.2548217773438	0.3247969150543213	-61.41348648071289	-538.9774169921875	-0.0	-0.0	-0.0	-0.0	-0.0	-0.0	73831.5859375	-10251.712890625	-8898.1533203125
0.202	-0.0	-0.0	-0.0	-10.934361457824709	69.07606506347656	-570.1849975585938	-0.1282331645488739	-61.50076675415039	-539.5947875976562	-0.0	-0.0	-0.0	-0.0	-0.0	-0.0	73623.4609375	-10146.939453125	-8918.443359375
0.2025	-0.0	-0.0	-0.0	-10.680706024169922	68.63041687011719	-570.2268676757812	-0.4435539245605469	-61.03028869628906	-537.8102416992188	-0.0	-0.0	-0.0	-0.0	-0.0	-0.0	73390.5234375	-9919.419921875	-9066.625
0.203	-0.0	-0.0	-0.0	-11.011285781860352	68.2625961303711	-570.238037109375	-0.3548431396484375	-60.68689727783203	-536.9952392578125	-0.0	-0.0	-0.0	-0.0	-0.0	-0.0	73591.1953125	-9837.1943359375	-9007.1953125
0.20350000000000001	-0.0	-0.0	-0.0	-11.215452194213867	68.26063537597656	-569.0225219726562	-0.3146312534809112	-60.24540328979492	-536.6065063476562	-0.0	-0.0	-0.0	-0.0	-0.0	-0.0	73434.5546875	-9770.3779296875	-9102.5126953125
0.20400000000000001	-0.0	-0.0	-0.0	-11.62270164489746	68.13359832763672	-569.8297119140625	0.1381581425666809	-59.87196731567383	-536.142333984375	-0.0	-0.0	-0.0	-0.0	-0.0	-0.0	73142.015625	-9577.619140625	-9108.83984375
0.20450000000000002	-0.0	-0.0	-0.0	-11.329734802246094	67.6243667602539	-569.9309692382812	0.0288601368665695	-59.14679718017578	-536.64599609375	-0.0	-0.0	-0.0	-0.0	-0.0	-0.0	73189.7734375	-9441.5888671875	-9203.9462890625
0.20500000000000002	-0.0	-0.0	-0.0	-11.253450393676758	67.62541961669922	-568.8218994140625	0.6209754943847656	-58.94174957275391	-536.64599609375	-0.0	-0.0	-0.0	-0.0	-0.0	-0.0	73075.3984375	-9485.943359375	-9124.880859375
0.20550000000000002	-0.0	-0.0	-0.0	-11.457021713256836	67.45867156982422	-568.3139038085938	0.4826233983039856	-58.645599365234375	-535.6401977539062	-0.0	-0.0	-0.0	-0.0	-0.0	-0.0	73184.6796875	-9365.7509765625	-9253.134765625
